<svg xmlns="http://www.w3.org/2000/svg" viewBox="0 0 1440 630.99988"><g id="e6c79902-8186-4ecd-a161-7bbe20df604b" data-name="Layer 2"><g id="b4087cd0-0879-457f-b74f-814348563bcd" data-name="Layer 1"><g id="f07d3591-5e20-4387-ab26-99ee888588dd" data-name="Shape 2"><polygon points="1150.56 66.383 1115.52 73.678 1094.88 76.96 1073.28 79.878 1059.84 80.972 1025.76 81.702 977.76 80.972 912.48 77.325 778.08 66.383 0 3.283 0 336.655 169.92 423.098 460.8 571.912 534.24 609.48 551.52 617.869 556.969 620.519 560.479 622.226 564 623.603 566 624.407 569.492 625.702 572.12 626.609 573.764 627.112 575.168 627.525 576.575 627.92 577.859 628.261 579.01 628.553 580.089 628.787 581.076 629.016 582.415 629.361 583.726 629.625 585.12 629.906 587.35 630.166 589.563 630.471 591.36 630.635 599.04 631 606.24 631 612.96 630.635 618.767 629.929 624.694 628.921 630.901 628.006 636.381 626.588 643.998 624.808 651.36 622.611 679.2 614.587 1440 392.825 1440 0 1150.56 66.383" fill="#e5e5e5" fill-rule="evenodd"/></g></g></g></svg>