<?xml version="1.0" encoding="utf-8"?>
<!-- Generator: Adobe Illustrator 24.1.0, SVG Export Plug-In . SVG Version: 6.00 Build 0)  -->
<svg version="1.1" id="Layer_1" xmlns="http://www.w3.org/2000/svg" xmlns:xlink="http://www.w3.org/1999/xlink" x="0px" y="0px"
	 viewBox="0 0 1443 924.6" style="enable-background:new 0 0 1443 924.6;" xml:space="preserve">
<style type="text/css">
	.st0{fill:#FF9700;}
	.st1{fill-rule:evenodd;clip-rule:evenodd;fill:#DCDFE0;}
</style>
<g id="a3407b1e-1a3e-4c26-9e7e-3c01c992e2ea">
	<g id="be93c36f-d671-4d72-a044-59183e722da1">
		<g id="f2c8cf1c-76dc-41d1-9eba-09da6d636253">
			<path class="st0" d="M19.1,720l1383.6,7.1l-176.6,36.7l-87.8,18.3l-72.5,15.3l-81.1,17.9l-167.5,34.5l0,0l0,0L652.5,886
				l-33.6,7.4l-42.6,8.3c-0.6,0.1-11.9,2.1-23.7,4.3c-9.9,1.8-19.2,3.1-19.3,3.1l-0.1,0l-0.1,0c-0.1,0-10.1,1.8-20.4,2.9
				c-2.8,0.3-6,0.7-9.4,1.1c-3.5,0.4-7.1,0.8-10.2,1.2c-3.2,0.4-7,0.8-10.6,1.2c-3.2,0.4-6.3,0.7-8.6,1c-7.3,0.8-16,1.7-16.7,1.7
				l-17.2,1.3l-19,0.9l-19.4-0.4l-17-1.3l-12.5-2.1l-14.9-4.7l-13.2-5.1l-20.8-9.9l-42.6-24.3l-120-70.7l-82.6-48L19.1,720 M3,715.6
				l73,41.9l82.6,48l120,70.7l42.7,24.4l21.1,10l13.4,5.2l15.4,4.8l13,2.2l17.3,1.3l19.7,0.4l19.2-0.9l17.3-1.3
				c0,0,9.1-0.9,16.8-1.7c5-0.5,13.1-1.5,19.2-2.2c6.2-0.7,14-1.7,19.6-2.3c10.6-1.2,20.7-2.9,20.7-2.9s9.3-1.3,19.5-3.1
				c12.2-2.2,23.7-4.3,23.7-4.3l42.7-8.3l33.6-7.4L818,854l167.5-34.5l81.1-17.9l72.5-15.3L1227,768l216-44.9L3,715.6z"/>
		</g>
		<g id="b0f80807-cc3c-4464-a8c7-bd3defc0532f">
			<path class="st1" d="M629.8,864.5L815,832.7l167.5-28.9l81.1-15l72.5-12.8l87.8-15.4l210.9-36.8c3-0.5,5.1-3.1,5.1-6.1V15.8
				c0-3.9-3.5-6.8-7.3-6.1L815,118.6l-277.9,47.9l-37.9,5.1l-26.9,2.6l-21.1,1.8l-21.1,0.7l-14.9,0.4H396c0,0-8-0.2-13.4-0.7
				c-3.8-0.4-8.8-0.9-9.9-1.1c-0.1,0-0.3,0-0.4-0.1c-0.8-0.1-3.9-0.7-8-1.4c-3.1-0.5-6.1-1.3-9.1-2.2c0,0-3.5-0.9-7.7-2.2
				c-1.8-0.6-3.6-1.2-5.6-1.8c-2.1-0.6-5.9-2-7.8-2.6c-2.9-0.9-5.7-2-8.4-3.2c-0.1-0.1-0.3-0.1-0.4-0.2c-2.1-0.7-4.1-1.5-6-2.5
				c-3.5-1.7-8.2-3.5-9.3-3.9c-0.2-0.1-0.3-0.1-0.5-0.2c-1-0.5-4.5-2.2-8.9-4.3c-4.4-2.1-13.4-6.6-13.4-6.6l-29.8-14.6l-142.1-71
				L9,4.6c-4.1-2.1-9,0.9-9,5.5v702.6c0,2.4,1.4,4.6,3.5,5.6L73,751.8l82.6,40.3l120,59.3l42.5,20.4c0.1,0.1,0.3,0.1,0.4,0.2
				l20.7,8.3c0.1,0,0.2,0.1,0.4,0.1l13.1,4.3c0.1,0,0.2,0.1,0.4,0.1l14.8,3.9c0.2,0.1,0.5,0.1,0.7,0.1l12.4,1.7c0.2,0,0.3,0,0.5,0
				l17,1.1l19.5,0.4c0.1,0,0.2,0,0.4,0l18.7-0.7c0.2,0,0.4,0,0.6-0.1L629.8,864.5z"/>
		</g>
	</g>
</g>
</svg>
